v 129.614700 -2.506200 574.029480
v 1302.190552 -2.506200 574.029724
v 1302.190552 -2.506200 -643.361694
v -254.356705 -2.506200 574.029419
v -1428.519775 -2.506200 574.029297
v -254.356705 -2.506200 574.029419
v 1302.190552 -2.506200 -643.361694
v -63.341999 -2.506200 -643.836426
v -1428.519775 -2.506200 -644.311401
v -1428.519775 -2.506200 574.029297
v -63.341999 -2.506200 -643.836426
v 1302.220947 415.530304 -645.431030
v 900.171326 415.530304 -645.431030
v 900.171326 415.530304 -301.763214
v 1302.220947 415.530304 -301.763214
v -1030.174805 415.530304 -301.763214
v -1030.174805 415.530304 -645.431030
v -1432.224365 415.530304 -645.431030
v -1432.224365 415.530304 -301.763214
v -1030.174805 415.530304 230.517395
v -1030.174805 415.530304 -301.763214
v -1432.224365 415.530304 -301.763214
v -1432.224365 415.530304 230.517395
v 900.171326 415.530304 -645.431030
v -1030.174805 415.530304 -645.431030
v -1030.174805 415.530304 -301.763214
v 900.171326 415.530304 -301.763214
v 900.171326 415.530304 230.517395
v 900.171326 415.530304 574.185181
v 1302.220947 415.530304 574.185181
v 1302.220947 415.530304 230.517395
v 900.171326 415.530304 -301.763214
v 900.171326 415.530304 230.517395
v 1302.220947 415.530304 230.517395
v 1302.220947 415.530304 -301.763214
v -1432.224365 415.530304 574.185181
v -1030.174805 415.530304 574.185181
v -1030.174805 415.530304 230.517395
v -1432.224365 415.530304 230.517395
v -1030.174805 415.530304 574.185181
v 900.171326 415.530304 574.185181
v 900.171326 415.530304 230.517395
v -1030.174805 415.530304 230.517395
vn 0.000000 1.000000 -0.000000
vn 0.000000 1.000000 -0.000000
vn 0.000000 1.000000 -0.000000
vn 0.000000 1.000000 -0.000000
vn 0.000000 1.000000 0.000000
vn 0.000000 1.000000 0.000000
vn 0.000000 1.000000 0.000000
vn 0.000000 1.000000 0.000000
vn 0.000000 1.000000 0.000000
vn 0.000000 1.000000 0.000000
vn 0.000000 1.000000 0.000000
vn 0.000000 1.000000 0.000000
vn 0.000000 1.000000 0.000000
vn 0.000000 1.000000 0.000000
vn 0.000000 1.000000 0.000000
vn 0.000000 1.000000 0.000000
vn 0.000000 1.000000 0.000000
vn 0.000000 1.000000 0.000000
vn 0.000000 1.000000 0.000000
vn 0.000000 1.000000 0.000000
vn 0.000000 1.000000 0.000000
vn 0.000000 1.000000 0.000000
vn 0.000000 1.000000 0.000000
vn 0.000000 1.000000 0.000000
vn 0.000000 1.000000 0.000000
vn 0.000000 1.000000 0.000000
vn 0.000000 1.000000 0.000000
vn 0.000000 1.000000 0.000000
vn 0.000000 1.000000 0.000000
vn 0.000000 1.000000 0.000000
vn 0.000000 1.000000 0.000000
vn 0.000000 1.000000 0.000000
vn 0.000000 1.000000 0.000000
vn 0.000000 1.000000 0.000000
vn 0.000000 1.000000 0.000000
vn 0.000000 1.000000 0.000000
vn 0.000000 1.000000 0.000000
vn 0.000000 1.000000 0.000000
vn 0.000000 1.000000 0.000000
vn 0.000000 1.000000 0.000000
vn 0.000000 1.000000 0.000000
vn 0.000000 1.000000 0.000000
vn 0.000000 1.000000 0.000000
vt 2.621700 5.952500
vt -1.890500 5.952500
vt -1.890500 1.267900
vt 4.099200 5.952500
vt 8.617500 5.952500
vt 4.099200 5.952500
vt -1.890500 1.267900
vt 3.364200 1.266100
vt 8.617500 1.264200
vt 8.617500 5.952500
vt 3.364200 1.266100
vt 6.718900 3.185200
vt 5.731000 3.185200
vt 5.731000 2.327400
vt 6.718900 2.327400
vt 0.987900 2.327400
vt 0.987900 3.185200
vt 0.000000 3.185200
vt 0.000000 2.327400
vt 0.987900 1.017300
vt 0.987900 2.327400
vt 0.000000 2.327400
vt 0.000000 1.017300
vt 5.731000 3.185200
vt 0.987900 3.185200
vt 0.987900 2.327400
vt 5.731000 2.327400
vt 5.731000 1.017300
vt 5.731000 0.140900
vt 6.718900 0.140900
vt 6.718900 1.017300
vt 5.731000 2.327400
vt 5.731000 1.017300
vt 6.718900 1.017300
vt 6.718900 2.327400
vt 0.000000 0.140900
vt 0.987900 0.140900
vt 0.987900 1.017300
vt 0.000000 1.017300
vt 0.987900 0.140900
vt 5.731000 0.140900
vt 5.731000 1.017300
vt 0.987900 1.017300
f 1/1/1 2/2/2 3/3/3
f 1/1/1 3/3/3 4/4/4
f 5/5/5 6/6/6 7/7/7
f 5/5/5 7/7/7 8/8/8
f 9/9/9 10/10/10 11/11/11
f 12/12/12 13/13/13 14/14/14
f 12/12/12 14/14/14 15/15/15
f 16/16/16 17/17/17 18/18/18
f 16/16/16 18/18/18 19/19/19
f 20/20/20 21/21/21 22/22/22
f 20/20/20 22/22/22 23/23/23
f 24/24/24 25/25/25 26/26/26
f 24/24/24 26/26/26 27/27/27
f 28/28/28 29/29/29 30/30/30
f 28/28/28 30/30/30 31/31/31
f 32/32/32 33/33/33 34/34/34
f 32/32/32 34/34/34 35/35/35
f 36/36/36 37/37/37 38/38/38
f 36/36/36 38/38/38 39/39/39
f 40/40/40 41/41/41 42/42/42
f 40/40/40 42/42/42 43/43/43
